<svg xmlns="http://www.w3.org/2000/svg" viewBox="0 0 694.36 802.1">
  <path fill="#76ff76" stroke="#000" stroke-linejoin="round" stroke-width="4" d="M345.03 2 2 201.52l343.03 198.2 347.33-198.86L345.03 2z"/>
  <path fill="#b8ffb8" stroke="#000" stroke-linejoin="round" stroke-width="4" d="M2 201.52v399.05L347.18 800.1l-2.15-400.38L2 201.52z"/>
  <path fill="#87d887" stroke="#000" stroke-linejoin="round" stroke-width="4" d="M692.36 200.86V601.9L347.18 800.1l-2.15-400.38 347.33-198.86z"/>
  <path fill="none" stroke="#000" stroke-linejoin="round" stroke-width="4" d="m2 413.11 344.17 199.52 346.19-199.52"/>
  <path fill="none" stroke="#000" stroke-linejoin="round" stroke-width="4" d="M508.55 95.62 174.59 301.24v399.1"/>
  <path fill="none" stroke="#000" stroke-linejoin="round" stroke-width="4" d="m184.07 95.62 339.44 201.91v401.32"/>
  <path d="M242.53 197.84c6.04 1.24 9.53 6.1 7.7 10.89-1.87 4.86-8.53 7.82-14.74 6.51l-30.28-6.41-4.72 17.03c-.81 2.94-5.25 4.35-7.91 2.51l-58.39-40.47c-2.53-1.76-.32-5.34 3.51-5.76l80.62-8.67c3.35-.36 5.68 2.04 4.16 4.31l-9.41 14.07 29.46 5.99Zm2.66 9.83c1.03-2.62-.88-5.32-4.21-6l-31.29-6.43c-2.07-.42-2.99-2.15-1.95-3.68l9.79-14.42-78.5 8.49 56.45 38.68 4.99-17.37c.49-1.72 2.78-2.84 4.88-2.4l31.76 6.67c3.38.71 7.03-.9 8.07-3.54Z"/>
  <path fill="#f2f4f2" d="M240.98 201.67c3.33.68 5.24 3.38 4.21 6-1.05 2.65-4.7 4.25-8.07 3.54l-31.76-6.67c-2.1-.44-4.39.68-4.88 2.4l-4.99 17.37-56.45-38.68 78.5-8.49-9.79 14.42c-1.04 1.53-.12 3.25 1.95 3.68l31.29 6.43Z"/>
  <path d="M158.57 156.44c1.2.23 1.76 1.15 1.22 2.04l-6.68 11.22c-.56.94-2.02 1.5-3.26 1.25-1.24-.24-1.77-1.2-1.2-2.14l6.76-11.18c.55-.89 1.96-1.43 3.16-1.19Zm-23.35 13.67c.45.84-.23 1.92-1.52 2.42-1.29.49-2.7.21-3.14-.64l-5.27-10.08c-.41-.8.27-1.84 1.53-2.31 1.25-.47 2.62-.2 3.05.6l5.34 10.01Zm-3.98 31.83c1.29.28 1.84 1.37 1.2 2.43l-7.94 13.32c-.66 1.12-2.28 1.78-3.62 1.49-1.33-.31-1.86-1.45-1.18-2.57l8.03-13.26c.64-1.06 2.21-1.69 3.5-1.41Zm-10.98-22.21c1.24.26 1.73 1.26 1.1 2.24-.63.98-2.16 1.57-3.4 1.31l-15.05-3.14c-1.22-.25-1.68-1.24-1.02-2.22.66-.96 2.17-1.53 3.39-1.29l14.98 3.09Zm-.19 14.45c.45.92-.3 2.1-1.66 2.64l-16.81 6.65c-1.39.55-2.86.22-3.27-.72s.39-2.15 1.78-2.7l16.72-6.56c1.36-.54 2.8-.22 3.24.69Zm540.67 188.43c2.9 1.47 3.03 6.6.27 11.45l-.37.66c-1.38 2.43-3.22 4.32-5.08 5.43-1.86 1.1-3.73 1.41-5.18.67l-30.41-15.58c-.92-.47-.95-2.11-.06-3.67l1.88-3.28-6.6-3.28c-6.39 10.32-14.49 18.44-22.64 23.31-8.77 5.25-17.56 6.73-24.27 3.21-13.33-7.01-13.44-31.17-.38-53.85 13.03-22.61 34.46-35.61 47.91-28.98 12.95 6.38 13.94 28.66 2.57 50.68l6.63 3.28 1.98-3.47c.89-1.56 2.35-2.44 3.28-1.97l30.47 15.39Zm-47.38-11.8c11.37-19.88 11-40.76-.73-46.57-5.83-2.88-13.39-1.5-20.9 3.04-7.49 4.54-14.95 12.24-20.59 22.05-11.31 19.65-11.2 40.55.35 46.6 11.63 6.08 30.45-5.18 41.86-25.12Z"/>
  <path fill="#bacbd8" d="M612.63 324.24c11.73 5.81 12.1 26.69.73 46.57-11.41 19.94-30.23 31.2-41.86 25.12-11.55-6.05-11.66-26.95-.35-46.6 5.64-9.81 13.1-17.51 20.59-22.05 7.51-4.54 15.07-5.92 20.9-3.04Zm-7.51 44.21c1.27-.76 2.28-2.53 2.26-3.95l-.39-27.08c-.02-1.41-1.06-1.93-2.32-1.17-1.27.77-2.28 2.52-2.26 3.93l.37 27.08c.02 1.43 1.07 1.96 2.34 1.19Zm-13.32 8c1.27-.76 2.28-2.53 2.27-3.95l-.24-19.99c-.02-1.41-1.06-1.93-2.32-1.17s-2.27 2.52-2.26 3.93l.23 19.99c.01 1.42 1.05 1.96 2.32 1.19Zm-13.28 7.98c1.27-.76 2.28-2.53 2.27-3.95l-.11-11.47c-.01-1.42-1.05-1.95-2.31-1.19s-2.27 2.52-2.26 3.94l.1 11.47c.01 1.42 1.05 1.96 2.31 1.2Z"/>
  <path d="M607.38 364.5c.02 1.42-.99 3.19-2.26 3.95-1.27.77-2.32.24-2.34-1.19l-.37-27.08c-.02-1.41.99-3.16 2.26-3.93 1.26-.76 2.3-.24 2.32 1.17l.39 27.08Zm-13.31 8c0 1.42-1 3.19-2.27 3.95-1.27.77-2.31.23-2.32-1.19l-.23-19.99c0-1.41 1-3.17 2.26-3.93s2.3-.24 2.32 1.17l.24 19.99Zm-11.51-170.75c7.19 4.15 7.38 10.78.44 14.75-6.9 3.95-18.29 3.79-25.38-.34-4.78-2.78-6.43-6.67-4.91-10.13l-19.27-7.01c-3.44 1.94-7.72 3.07-12.18 3.41l-2.17 9.93c2.5.27 4.91.98 6.88 2.13 5 2.92 5.18 7.58.39 10.36-4.78 2.77-12.7 2.64-17.67-.28-4.95-2.91-5.14-7.54-.41-10.32 1.56-.92 3.48-1.52 5.52-1.81l2.16-9.97c-5.06-.32-10.03-1.63-13.97-3.93-1.01-.59-1.89-1.22-2.67-1.88l-23.14 4.31c.63 2.82-.79 5.71-4.31 7.81-6.17 3.68-16.43 3.55-22.9-.27-6.46-3.82-6.76-9.91-.66-13.6 6.11-3.71 16.41-3.63 22.94.2 1.48.87 2.63 1.87 3.47 2.92l22.05-4.13c-3.12-4.54-1.88-9.82 3.8-13.57l-16.4-11.02c-5.35 2.14-12.77 1.77-17.67-1.08-5.57-3.25-5.81-8.52-.54-11.76 5.29-3.26 14.17-3.28 19.8-.02 5.03 2.92 5.73 7.46 2.01 10.72l16.63 11.17c7.37-2.97 17.32-2.98 25.05 0l11.57-8.25c-4.76-3.69-4.43-8.93 1.14-12.27 6.18-3.71 16.48-3.72 22.96-.01 6.49 3.71 6.67 9.76.43 13.44-5.54 3.27-14.27 3.6-20.65 1.03l-11.36 8.08c7.43 4.55 8.55 11.32 3.19 16.31l18.05 6.55c.66-.61 1.43-1.19 2.35-1.72 6.85-3.99 18.26-3.88 25.43.26Zm-3.42 12.51c4.87-2.79 4.73-7.44-.31-10.36-5.03-2.91-13.05-2.99-17.87-.19-4.81 2.8-4.65 7.42.33 10.32 5 2.91 13 3.02 17.85.23Zm-17.45-45.23c4.18-2.48 4.05-6.53-.29-9.02s-11.25-2.48-15.4 0c-4.14 2.48-4 6.5.31 8.98 4.31 2.49 11.21 2.51 15.38.04Zm-31.71 27.61c6.64-3.92 6.41-10.39-.53-14.42-6.93-4.01-17.91-4.06-24.47-.13-6.53 3.91-6.27 10.33.58 14.33 6.86 4 17.81 4.11 24.42.22Zm-7.39 26c2.79-1.62 2.69-4.34-.23-6.05s-7.56-1.77-10.33-.14c-2.78 1.62-2.67 4.33.24 6.03 2.9 1.71 7.53 1.78 10.32.16Zm-40.06-56.54c3.37-2.06 3.23-5.41-.33-7.48-3.55-2.06-9.17-2.05-12.52 0-3.35 2.05-3.2 5.39.33 7.45 3.54 2.06 9.15 2.07 12.52.02Zm-14.36 40.51c4.25-2.54 4.06-6.76-.43-9.4-4.48-2.63-11.55-2.69-15.76-.14-4.2 2.54-4 6.73.45 9.36 4.45 2.62 11.51 2.71 15.74.18Zm112.62 173.87c.01 1.42-1 3.19-2.27 3.95-1.26.76-2.3.22-2.31-1.2l-.1-11.47c-.01-1.42 1-3.18 2.26-3.94s2.3-.23 2.31 1.19l.11 11.47Z"/>
  <path fill="#ffffc7" d="M578.83 203.9c5.04 2.92 5.18 7.57.31 10.36-4.85 2.79-12.85 2.68-17.85-.23-4.98-2.9-5.14-7.52-.33-10.32 4.82-2.8 12.84-2.72 17.87.19Z"/>
  <path fill="#a6ffff" d="M561.4 160.01c4.34 2.49 4.47 6.54.29 9.02-4.17 2.47-11.07 2.45-15.38-.04-4.31-2.48-4.45-6.5-.31-8.98 4.15-2.48 11.06-2.49 15.4 0Z"/>
  <path fill="#e0ffde" d="M529.45 182.22c6.94 4.03 7.17 10.5.53 14.42-6.61 3.89-17.56 3.78-24.42-.22-6.85-4-7.11-10.42-.58-14.33 6.56-3.93 17.54-3.88 24.47.13Z"/>
  <path fill="#a6ffff" d="M522.36 216.59c2.92 1.71 3.02 4.43.23 6.05s-7.42 1.55-10.32-.16c-2.91-1.7-3.02-4.41-.24-6.03 2.77-1.63 7.41-1.57 10.33.14Z"/>
  <path fill="#fbc7ff" d="M482.2 158.62c3.56 2.07 3.7 5.42.33 7.48-3.37 2.05-8.98 2.04-12.52-.02-3.53-2.06-3.68-5.4-.33-7.45 3.35-2.06 8.97-2.07 12.52 0Z"/>
  <path d="M477.32 589.75c1.63-.47 2.54.64 2.04 2.76l-.34 1.61-2.72-.57-44.47 12.78-2.9-.46c.66-1.49 2.06-2.92 3.33-3.26l45.06-12.86Z"/>
  <path d="m479.02 594.12-10.41 49.9c1.85-.72 3.28.32 3.28 2.39v37.71c-.01 1.5-.73 3.25-1.83 4.66l-2.19-1.49c.41-.23.82-.8.82-1.34l.1-.06.03-37.96c0-.44-.31-.7-.82-.41l-5.02 2.83-1.45-2.56.04-39.7-45.46 25.17-2.91-.7c.47-.99 1.27-1.9 2.19-2.41l9.32-5.15 2.11-9.58-1.79-2.04 2.74-2.41.84-4.07c.06-.34.17-.68.32-1.03l2.9.46c-.73 3.24-2.84 13.35-3.58 16.71l34.14-18.88c1.44-.79 2.56-.22 2.56 1.29l-.03 40.43.51-.29 10.87-52.04 2.72.57Z"/>
  <path fill="#e8e8e8" d="m476.3 593.55-10.87 52.04-.51.29.03-40.43c0-1.51-1.12-2.08-2.56-1.29l-34.14 18.88c.74-3.36 2.85-13.47 3.58-16.71l44.47-12.78Z"/>
  <path d="m467.87 687.29 2.19 1.49c-.66.85-1.44 1.58-2.3 2.07l-59.97 34.44c-2.33 1.33-4.23.43-4.22-2.02l.18-45.04c.01-1.18.44-2.47 1.14-3.64l2.79.61c-.26.27-.44.61-.44 1.07l-.18 45c0 .44.32.7.85.4l59.96-34.38Z"/>
  <path fill="#cec8b2" d="m468.82 647.93-.03 37.96-.1.06c0 .54-.41 1.11-.82 1.34l-59.96 34.38c-.53.3-.85.04-.85-.4l.18-45c0-.46.18-.8.44-1.07.44-.45 1.11-.72 1.57-1.05 3.16-1.78 11.14-6.27 14.39-8.21.32-.18.53-.18.73-.08l3.97 2.49c.83.52 1.98.42 3.23-.28l31.41-17.72 5.02-2.83c.51-.29.82-.03.82.41Zm-34.72 50.46v-4.07c.01-1.77-1.34-2.42-3.01-1.47l-16.27 9.26c-1.68.96-3.06 3.19-3.06 4.96l-.02 4.1c-.01 1.77 1.36 2.43 3.05 1.47l16.27-9.31c1.67-.96 3.04-3.17 3.04-4.94Z"/>
  <path fill="#fffaa4" d="M467.74 197.21c4.49 2.64 4.68 6.86.43 9.4-4.23 2.53-11.29 2.44-15.74-.18-4.45-2.63-4.65-6.82-.45-9.36 4.21-2.55 11.28-2.49 15.76.14Z"/>
  <path d="m461.53 647.79 1.45 2.56-31.41 17.72c-1.25.7-2.4.8-3.23.28l-3.97-2.49c-.2-.1-.41-.1-.73.08-3.25 1.94-11.23 6.43-14.39 8.21-.46.33-1.13.6-1.57 1.05l-2.79-.61c.55-.92 1.26-1.77 2.05-2.45l-10.84-30.55c-.21-.54-.1-1.38.22-2.21.33-.84.96-1.63 1.6-2.2l27.11-23.8 1.79 2.04-27.22 23.91 10.82 30.63 2.21-1.24.13-34.37c0-.58.16-1.19.44-1.79l2.91.7-.11 33.57 7.55-4.24c1.25-.71 2.4-.8 3.24-.29l3.96 2.5c.1.16.41.09.62-.02l30.16-16.99Z"/>
  <path fill="#e8e8e8" d="m461.57 608.09-.04 39.7-30.16 16.99c-.21.11-.52.18-.62.02l-3.96-2.5c-.84-.51-1.99-.42-3.24.29l-7.55 4.24.11-33.57 45.46-25.17Zm-5.77 12.43c2.16-1.2 2.16-4.68 0-3.48l-21.63 12.01c-2.09 1.16-2.2 4.72 0 3.5l21.64-12.03Zm-.02 9.69c2.17-1.21 2.17-4.69.01-3.48l-33.86 18.87c-2.1 1.17-2.21 4.75-.01 3.52l33.86-18.91Zm-.01 9.7c2.16-1.21 2.17-4.7.01-3.49l-33.88 18.97c-2.1 1.17-2.21 4.75-.01 3.52l33.88-19Z"/>
  <path d="M455.8 617.04c2.16-1.2 2.16 2.28 0 3.48l-21.64 12.03c-2.19 1.22-2.08-2.34 0-3.5l21.63-12.01Zm-.01 9.69c2.16-1.21 2.16 2.27-.01 3.48l-33.86 18.91c-2.2 1.23-2.09-2.35.01-3.52l33.86-18.87Zm-.01 9.69c2.16-1.21 2.15 2.28-.01 3.49l-33.88 19c-2.2 1.23-2.09-2.35.01-3.52l33.88-18.97Zm-21.67 57.9v4.07c-.01 1.77-1.38 3.98-3.05 4.94l-16.27 9.31c-1.69.96-3.06.3-3.05-1.47l.02-4.1c0-1.77 1.38-4 3.06-4.96l16.27-9.26c1.67-.95 3.02-.3 3.02 1.47Zm-3.35 5.65v-3.53l-15.74 8.99v3.54l15.74-9Z"/>
  <path fill="#e8e8e8" d="m426.82 615.42-2.11 9.58-9.32 5.15c-.92.51-1.72 1.42-2.19 2.41-.28.6-.44 1.21-.44 1.79l-.13 34.37-2.21 1.24-10.82-30.63 27.22-23.91Z"/>
  <path d="M315.66 539.14c.04 7.54-5.12 10.7-11.49 7.02-5.7-3.3-10.44-10.96-11.37-17.92l-23.2-13.37c-.92 5.87-5.61 8.06-11.24 4.81-5.61-3.25-10.24-10.81-11.1-17.68l-22.85-13.16c-.95 5.8-5.6 7.97-11.14 4.77-6.16-3.56-11.09-12.43-10.99-19.75.09-7.31 5.15-10.38 11.28-6.87 5.52 3.16 10.06 10.6 10.89 17.4l22.83 13.14c.83-5.15 4.58-7.43 9.3-5.67l.12-29.17c-15.87-9.57-27.93-23.93-27.85-33.38l.27-30.44c.08-9.68 13.09-10.04 29.71-.79 16.71 9.31 29.87 24.33 29.88 34.17l.03 30.92c.01 9.59-12.31 10.18-28.29 1.66l-.1 29.19c4.73 3.66 8.47 10.25 9.26 16.35l23.19 13.34c.9-5.88 5.6-8.08 11.27-4.82h.01c6.34 3.64 11.54 12.72 11.58 20.25Zm-11.51 2.46c4.25 2.44 7.68.34 7.66-4.68s-3.49-11.07-7.72-13.5c-4.22-2.43-7.65-.34-7.64 4.66.02 5 3.47 11.07 7.7 13.52Zm-19.19-80.57v-6.75c-.23.11-.48.22-.72.31-5.45 2.09-15.03-.26-25.61-6.24-10.53-5.96-19.99-14.37-25.31-22.5-.25-.37-.48-.74-.71-1.1l-.05 6.65c-.05 6.21 10.6 19.23 26.03 27.99 15.51 8.8 26.37 7.93 26.37 1.64Zm-.01-15.48v-6.72c-.23.11-.47.22-.72.32-5.43 2.07-14.99-.24-25.54-6.19-10.51-5.91-19.95-14.27-25.25-22.35-.25-.37-.48-.74-.71-1.1l-.05 6.62c-.02 2.03.99 4.6 2.99 7.64 4.62 7.04 13.42 14.77 22.98 20.18 9.59 5.42 18.5 7.67 23.22 5.87 2.05-.79 3.08-2.22 3.08-4.27Zm-3.08-11.15c2.04-.79 3.08-2.22 3.08-4.26-.01-6.22-10.77-19.14-26.14-27.72-15.29-8.53-25.96-7.62-26.01-1.48-.01 2.01.99 4.57 2.98 7.59 4.61 7.01 13.39 14.69 22.93 20.05 9.57 5.39 18.45 7.61 23.16 5.82Zm-15.89 76.14c.01-4.96-3.37-10.94-7.53-13.33-4.16-2.38-7.56-.31-7.59 4.62-.02 4.95 3.35 10.94 7.52 13.34 4.18 2.41 7.59.33 7.6-4.63Zm-45.11-25.98c.04-4.89-3.26-10.79-7.36-13.15-4.09-2.35-7.47-.29-7.53 4.58-.06 4.89 3.23 10.8 7.34 13.17s7.5.31 7.55-4.6Z"/>
  <path fill="#a6ffff" d="M311.81 536.92c.02 5.02-3.41 7.12-7.66 4.68-4.23-2.45-7.68-8.52-7.7-13.52-.01-5 3.42-7.09 7.64-4.66 4.23 2.43 7.7 8.48 7.72 13.5Z"/>
  <path fill="#ffffc7" d="M284.96 454.28v6.75c0 6.29-10.86 7.16-26.37-1.64-15.43-8.76-26.08-21.78-26.03-27.99l.05-6.65c.23.36.46.73.71 1.1 5.32 8.13 14.78 16.54 25.31 22.5 10.58 5.98 20.16 8.33 25.61 6.24.24-.09.49-.2.72-.31Z"/>
  <path fill="#ffffc7" d="M284.95 438.83v6.72c0 2.05-1.03 3.48-3.08 4.27-4.72 1.8-13.63-.45-23.22-5.87-9.56-5.41-18.36-13.14-22.98-20.18-2-3.04-3.01-5.61-2.99-7.64l.05-6.62c.23.36.46.73.71 1.1 5.3 8.08 14.74 16.44 25.25 22.35 10.55 5.95 20.11 8.26 25.54 6.19.25-.1.49-.21.72-.32Z"/>
  <path fill="#ffffc7" d="M284.95 430.14c0 2.04-1.04 3.47-3.08 4.26-4.71 1.79-13.59-.43-23.16-5.82-9.54-5.36-18.32-13.04-22.93-20.05-1.99-3.02-2.99-5.58-2.98-7.59.05-6.14 10.72-7.05 26.01 1.48 15.37 8.58 26.13 21.5 26.14 27.72Z"/>
  <path fill="#a6ffff" d="M258.45 497.21c4.16 2.39 7.54 8.37 7.53 13.33s-3.42 7.04-7.6 4.63c-4.17-2.4-7.54-8.39-7.52-13.34.03-4.93 3.43-7 7.59-4.62Zm-44.94-25.8c4.1 2.36 7.4 8.26 7.36 13.15-.05 4.91-3.44 6.97-7.55 4.6s-7.4-8.28-7.34-13.17c.06-4.87 3.44-6.93 7.53-4.58Z"/>
  <path d="M131 593.38c.01.39-.08.7-.23.94l-13.55 28.2c-.33.71-1.13.79-1.97.31s-72.22-41.74-72.22-41.74c-1.19-.69-2.15-2.29-2.15-3.6v-67.71c0-1.28.96-1.77 2.14-1.08l14.28 8.27c0-1.61-.17-9.79.07-10.63l.59-.73 12.57-6.26c.32-.01.69.08 1.09.31l43.97 25.49c1.18.69 2.14 2.28 2.14 3.57l.1 42.95 6.29 3.64c1.18.68 2.14 2.28 2.15 3.57l.02 9.44c1.75 1.01 4.7 2.24 4.71 5.06Zm-17.19 23.95 11.86-24.69-67.48-39.05-11.95 24.67 67.57 39.07Zm8.19-31.48v-7.11l-4.16-2.4.02 7.11 4.14 2.4Zm-8.43-4.88-.11-52.4-39.69-23.01v10.9c.01 1.29-.95 1.77-2.14 1.09l-10.04-5.82.02 39.17 51.96 30.07Zm-44.08-69.32v-5.28l-4.87 2.46 4.87 2.82Zm-12.17 36.76v-26.78l-12.15-7.03v53.59l9.61-19.8c.34-.7 1.14-.78 1.98-.3l.56.32Z"/>
  <path fill="#fff9d9" d="m125.67 592.64-11.86 24.69-67.57-39.07 11.95-24.67 67.48 39.05zm-3.68-13.9.01 7.11-4.14-2.4-.02-7.11 4.15 2.4z"/>
  <path fill="#fff" d="m113.46 528.57.11 52.4-51.96-30.07-.02-39.17 10.04 5.82c1.19.68 2.15.2 2.15-1.09v-10.9l39.68 23.01Zm-10.5 28.78v-4.67l-30.77-17.82v4.67l30.77 17.82Zm-.01-8.63v-4.66l-30.77-17.82v4.66l30.77 17.82Z"/>
  <path d="m102.95 552.68.01 4.67-30.77-17.82v-4.67l30.76 17.82zm-.01-8.62.01 4.66-30.77-17.82v-4.66l30.76 17.82z"/>
  <path fill="#fff9d9" d="M57.31 521.63v26.78l-.55-.32c-.84-.48-1.64-.4-1.98.3l-9.6 19.8V514.6l12.13 7.03Z"/>
</svg>
